<?xml version="1.0" encoding="utf-8"?>
<!-- Generator: Adobe Illustrator 24.1.2, SVG Export Plug-In . SVG Version: 6.00 Build 0)  -->
<svg version="1.1" id="Layer_1" xmlns="http://www.w3.org/2000/svg" xmlns:xlink="http://www.w3.org/1999/xlink" x="0px" y="0px"
	 viewBox="0 0 23 23" style="enable-background:new 0 0 23 23;" xml:space="preserve">
<style type="text/css">
	.st0{fill:none;stroke:#5051F9;stroke-miterlimit:10;}
</style>
<path class="st0" d="M13.1,21c0-0.4-0.2-0.8-0.4-1l-9.6-9.6c-0.3-0.3-0.7-0.4-1-0.4c-0.8,0-1.5,0.7-1.5,1.5c0,0.4,0.2,0.8,0.4,1
	l9.6,9.6c0.3,0.3,0.7,0.4,1,0.4C12.4,22.4,13.1,21.8,13.1,21z"/>
<path class="st0" d="M3.1,14.5c-0.3-0.3-0.7-0.4-1-0.4c-0.8,0-1.5,0.7-1.5,1.5c0,0.4,0.2,0.8,0.4,1L6.4,22c0.3,0.3,0.7,0.4,1,0.4
	c0.8,0,1.5-0.7,1.5-1.5c0-0.4-0.2-0.8-0.4-1"/>
<path class="st0" d="M2.6,18.3l-1.6,1.6l2.1,2.1l1.6-1.6"/>
<path class="st0" d="M9.9,2c0,0.4,0.2,0.8,0.4,1l9.6,9.6c0.3,0.3,0.7,0.4,1,0.4c0.8,0,1.5-0.7,1.5-1.5c0-0.4-0.2-0.8-0.4-1L12.5,1
	c-0.3-0.3-0.7-0.4-1-0.4C10.6,0.6,9.9,1.2,9.9,2L9.9,2z"/>
<path class="st0" d="M19.9,8.5c0.3,0.3,0.7,0.4,1,0.4c0.8,0,1.5-0.7,1.5-1.5c0-0.4-0.2-0.8-0.4-1L16.6,1c-0.3-0.3-0.7-0.4-1-0.4
	c-0.8,0-1.5,0.7-1.5,1.5c0,0.4,0.2,0.8,0.4,1"/>
<path class="st0" d="M20.4,4.7l1.6-1.6l-2.1-2.1l-1.6,1.6"/>
<path class="st0" d="M6.8,14.1l7.3-7.3"/>
<path class="st0" d="M8.9,16.2l7.3-7.3"/>
</svg>
